<?xml version="1.0" encoding="UTF-8"?>
<!DOCTYPE svg PUBLIC "-//W3C//DTD SVG 1.1//EN" "http://www.w3.org/Graphics/SVG/1.1/DTD/svg11.dtd">
<!-- Creator: CorelDRAW X8 -->
<svg xmlns="http://www.w3.org/2000/svg" xml:space="preserve" width="297mm" height="210mm" version="1.1" style="shape-rendering:geometricPrecision; text-rendering:geometricPrecision; image-rendering:optimizeQuality; fill-rule:evenodd; clip-rule:evenodd"
viewBox="0 0 29700 21000"
 xmlns:xlink="http://www.w3.org/1999/xlink">
 <defs>
  <style type="text/css">
   <![CDATA[
    .fil0 {fill:#28448F}
    .fil2 {fill:#96989A}
    .fil1 {fill:#E32D16}
   ]]>
  </style>
 </defs>
 <g id="Capa_x0020_1">
  <metadata id="CorelCorpID_0Corel-Layer"/>
  <g id="_809337088">
   <path class="fil0" d="M25402 8540l0 3988c0,202 -410,364 -912,364l-19220 -32c-502,-2 -912,-165 -912,-368l0 -3987c0,-200 410,-362 912,-362l19220 32c502,0 912,165 912,365z"/>
   <path class="fil1" d="M25342 14874l0 3987c0,200 -410,364 -912,362l-19220 -32c-502,0 -912,-165 -912,-365l0 -3987c0,-200 410,-365 912,-365l19220 32c502,3 912,168 912,368z"/>
   <path class="fil2" d="M25402 2197l0 4031c0,205 -416,370 -924,368l-19195 -49c-509,-2 -925,-169 -925,-371l0 -4031c0,-205 416,-370 925,-368l19195 48c508,2 924,170 924,372z"/>
  </g>
 </g>
</svg>
