<?xml version="1.0" encoding="UTF-8"?>
<!DOCTYPE svg PUBLIC "-//W3C//DTD SVG 1.1//EN" "http://www.w3.org/Graphics/SVG/1.1/DTD/svg11.dtd">
<!-- Creator: CorelDRAW X8 -->
<svg xmlns="http://www.w3.org/2000/svg" xml:space="preserve" width="135mm" height="55.22mm" version="1.1" style="shape-rendering:geometricPrecision; text-rendering:geometricPrecision; image-rendering:optimizeQuality; fill-rule:evenodd; clip-rule:evenodd"
viewBox="0 0 13500 5522"
 xmlns:xlink="http://www.w3.org/1999/xlink">
 <defs>
  <style type="text/css">
   <![CDATA[
    .str0 {stroke:#1A3B4E;stroke-width:52.92}
    .str1 {stroke:#FEFEFE;stroke-width:25.51;stroke-linecap:round;stroke-linejoin:round}
    .fil3 {fill:none}
    .fil4 {fill:#FEFEFE}
    .fil0 {fill:#173B4B}
    .fil2 {fill:#FEFEFE;fill-rule:nonzero}
    .fil1 {fill:url(#id0)}
   ]]>
  </style>
  <radialGradient id="id0" gradientUnits="userSpaceOnUse" gradientTransform="matrix(1.17102 -0 -0 1.16473 -1157 -456)" cx="6763.56" cy="2767.76" r="5384.28" fx="6763.56" fy="2767.76">
   <stop offset="0" style="stop-opacity:1; stop-color:#BCE0E0"/>
   <stop offset="1" style="stop-opacity:1; stop-color:#668F8A"/>
  </radialGradient>
 </defs>
 <g id="Capa_x0020_1">
  <metadata id="CorelCorpID_0Corel-Layer"/>
  <g id="_782066176">
   <path class="fil0" d="M10062 2400l514 0c344,0 544,272 544,569l0 2089c0,116 -95,442 -212,442l-8001 0c-286,0 -527,-224 -527,-541l0 -1886 0 -256 0 -2236c0,-303 223,-559 532,-559l6384 0c477,0 766,218 766,654l0 1724z"/>
   <path class="fil1" d="M2868 245l6509 0c274,0 468,151 468,483l0 1883 751 0c185,0 307,154 307,339l0 2127c0,117 -95,213 -212,213l-7855 0c-117,0 -212,-96 -212,-213l0 -1996 0 -257 0 -2333c0,-135 110,-246 244,-246z"/>
   <polygon class="fil2 str0" points="5185,2899 4250,4832 3841,4822 2924,2899 3329,2899 4048,4433 4779,2901 "/>
   <polygon class="fil2 str0" points="5719,3151 5367,3151 5367,2828 5719,2828 "/>
   <polygon class="fil2 str0" points="5726,4837 5360,4837 5360,3381 5726,3381 "/>
   <path class="fil2 str0" d="M8652 4843c-51,14 -105,24 -162,31 -57,8 -127,11 -209,11 -185,0 -261,-37 -351,-111 -90,-75 -135,-202 -135,-383l0 -652 -254 0 0 -321 254 0 0 -459 362 0 0 459 495 0 0 321 -495 0 0 486c0,52 1,97 2,136 0,39 -1,85 12,116 69,169 381,75 481,75l0 291z"/>
   <path class="fil2 str0" d="M10389 4119c0,238 -69,426 -207,563 -139,138 -334,206 -585,206 -251,0 -446,-68 -585,-206 -138,-137 -208,-325 -208,-563 0,-240 70,-428 210,-566 139,-136 334,-205 583,-205 253,0 448,69 585,207 138,138 207,326 207,564zm-469 383c44,-40 77,-88 99,-145 22,-57 33,-135 33,-235 0,-93 -11,-171 -34,-233 -22,-63 -54,-113 -94,-150 -40,-39 -88,-66 -145,-82 -56,-16 -117,-24 -182,-24 -65,0 -123,7 -174,20 -51,13 -99,39 -145,78 -42,37 -75,87 -100,151 -24,64 -36,143 -36,240 0,86 11,161 32,224 21,63 52,114 94,152 40,37 88,63 144,80 56,17 119,26 191,26 61,0 119,-8 176,-24 55,-15 103,-41 141,-78z"/>
   <path class="fil2" d="M10274 3275l0 -233 104 0c21,0 36,2 47,6 11,4 20,12 26,22 7,11 10,23 10,36 0,16 -5,30 -16,42 -11,11 -28,18 -50,21 8,4 14,8 19,12 9,8 17,19 25,31l41 63 -39 0 -31 -48c-9,-14 -16,-25 -22,-32 -6,-8 -11,-13 -16,-16 -4,-3 -9,-5 -14,-6 -3,-1 -9,-1 -17,-1l-36 0 0 103 -31 0zm31 -130l67 0c14,0 25,-1 33,-4 8,-3 14,-8 18,-14 4,-7 6,-14 6,-21 0,-11 -4,-20 -12,-28 -8,-7 -21,-10 -38,-10l-74 0 0 77z"/>
   <g>
    <path class="fil3 str1" d="M10377 3372c-118,0 -213,-96 -213,-213 0,-118 95,-213 213,-213 118,0 213,95 213,213 0,117 -95,213 -213,213z"/>
   </g>
   <polygon class="fil2 str0" points="5767,954 5414,954 5414,631 5767,631 "/>
   <polygon class="fil2 str0" points="5774,2623 5407,2623 5407,1184 5774,1184 "/>
   <path class="fil4 str0" d="M7160 3830l271 -136c-313,-480 -1310,-469 -1396,85 -3,430 420,440 806,502 105,17 262,21 267,158 7,226 -704,245 -836,-70 -93,53 -185,106 -278,159 202,443 1474,505 1461,-135 20,-599 -1251,-320 -1058,-668 180,-194 580,-138 763,105z"/>
   <path class="fil4 str0" d="M3110 677l1253 7c396,3 643,162 651,437 18,209 -58,351 -207,451 188,117 287,281 285,498 -15,332 -268,505 -722,543l-1268 -10 8 -1926zm369 320c313,0 626,0 939,0 291,11 291,427 0,441l-939 0 0 -441zm0 756c337,0 574,0 911,0 435,5 450,514 0,539l-911 0 0 -539z"/>
   <path class="fil4 str0" d="M7634 1991c6,-659 -436,-964 -1117,-809 -459,181 -609,758 -304,1191 397,451 1195,359 1409,-189l-366 -4c-318,412 -873,136 -862,-197l1240 8zm-1232 -258l887 0c-23,-183 -173,-335 -431,-337 -263,-3 -381,93 -456,337z"/>
   <path class="fil4 str0" d="M7910 1181l0 1424 325 0c0,-326 0,-604 0,-930 84,-315 715,-410 741,0l0 922 337 0c0,-346 0,-692 0,-1038 -97,-534 -771,-529 -1086,-215l-2 -163 -315 0z"/>
  </g>
 </g>
</svg>
