<?xml version="1.0" encoding="UTF-8"?>
<!DOCTYPE svg PUBLIC "-//W3C//DTD SVG 1.1//EN" "http://www.w3.org/Graphics/SVG/1.1/DTD/svg11.dtd">
<!-- Creator: CorelDRAW X8 -->
<svg xmlns="http://www.w3.org/2000/svg" xml:space="preserve" width="148.92mm" height="55.22mm" version="1.1" style="shape-rendering:geometricPrecision; text-rendering:geometricPrecision; image-rendering:optimizeQuality; fill-rule:evenodd; clip-rule:evenodd"
viewBox="0 0 14892 5522"
 xmlns:xlink="http://www.w3.org/1999/xlink">
 <defs>
  <style type="text/css">
   <![CDATA[
    .fil1 {fill:#2B2E59}
    .fil2 {fill:#C0C163}
    .fil0 {fill:#C0C1C5}
    .fil3 {fill:#FEFEFE}
   ]]>
  </style>
 </defs>
 <g id="Capa_x0020_1">
  <metadata id="CorelCorpID_0Corel-Layer"/>
  <g id="_789600896">
   <path class="fil0" d="M3113 5519c-1045,-3527 -490,-5190 2545,-5099 899,27 1519,94 2430,100 1249,9 2386,-197 3790,-517 521,2079 560,3617 -170,4434 -542,606 -1520,737 -3233,604 -1711,-12 -3928,-408 -5362,478zm69 -177c-800,-3423 -481,-4895 2412,-4791 882,31 1550,111 2443,117 1226,9 2406,-177 3783,-491 447,2084 449,3512 -193,4228 -533,593 -1472,656 -3153,526 -1678,-13 -3882,-376 -5292,411z"/>
   <path class="fil0" d="M3234 5242c-792,-3317 -453,-4724 2389,-4614 868,34 1573,111 2452,117 1207,9 2398,-155 3677,-477 440,2011 442,3388 -190,4079 -524,573 -1449,633 -3104,508 -1652,-13 -3835,-373 -5224,387z"/>
   <path class="fil1" d="M3357 5072c-769,-3090 -439,-4401 2320,-4299 842,32 1526,104 2381,110 1171,7 2327,-145 3569,-445 427,1873 429,3157 -184,3800 -509,534 -1408,590 -3014,473 -1603,-11 -3724,-347 -5072,361z"/>
   <path class="fil2" d="M9299 2791c464,-461 -249,-816 -739,-667 -895,234 -929,1554 -160,1733 755,104 1074,-182 953,-613 -45,-160 -133,-90 -213,-34 -183,126 -366,69 -363,-242 43,-304 178,-335 345,-185 73,66 95,87 177,8z"/>
   <path class="fil2" d="M10259 3220c1197,24 901,-1126 145,-1120 -701,21 -1031,332 -1052,893 -22,613 302,867 865,874 736,-3 913,-307 763,-691 -27,-102 -142,-25 -166,-10 -265,161 -410,186 -555,54z"/>
   <path class="fil2" d="M6390 2179c811,-239 1589,65 1471,887 -62,659 -587,978 -1552,743 -735,-233 -607,-1430 81,-1630z"/>
   <path class="fil2" d="M4043 1396c544,-170 952,-54 1020,361l235 882c79,-239 351,-912 225,-1134 -21,-98 18,-111 84,-136 173,-65 470,-71 609,53 74,67 80,227 43,337 -156,465 -523,1305 -716,1854 -45,127 -33,159 -142,183 -520,116 -731,125 -880,-481 -148,-630 -269,-1071 -542,-1622 -150,-256 3,-278 64,-297z"/>
   <path class="fil2" d="M4198 3822c-95,0 -172,-77 -172,-172 0,-95 77,-172 172,-172 95,0 172,77 172,172 0,95 -77,172 -172,172zm-1 -18c-86,0 -151,-68 -151,-154 0,-87 64,-154 151,-154 87,0 154,68 154,155 0,87 -67,153 -154,153z"/>
   <path class="fil1" d="M9220 2775c459,-490 -269,-681 -654,-589 -808,217 -842,1433 -148,1599 745,103 998,-177 852,-556 -4,-10 -8,-20 -12,-30 -213,195 -538,242 -543,-223 29,-386 268,-462 505,-201z"/>
   <path class="fil1" d="M6422 2236c754,-222 1476,60 1367,824 -60,606 -560,866 -1442,691 -683,-217 -564,-1329 75,-1515z"/>
   <path class="fil3" d="M6443 2272c716,-211 1404,58 1300,784 -58,576 -533,824 -1372,658 -650,-207 -536,-1264 72,-1442z"/>
   <path class="fil3" d="M9213 2702c356,-416 -285,-542 -641,-456 -748,201 -793,1338 -150,1491 628,101 908,-88 817,-456 -326,192 -560,125 -576,-306 20,-417 295,-510 550,-273z"/>
   <path class="fil1" d="M6651 2768c18,-325 386,-324 397,0 13,171 4,305 -2,476 -25,258 -391,258 -397,0 -13,-171 -16,-305 2,-476z"/>
   <path class="fil2" d="M6696 2797c13,-281 298,-281 307,0 9,148 3,264 -2,412 -19,223 -303,223 -307,0 -10,-148 -13,-264 2,-412z"/>
   <path class="fil1" d="M6763 2828c7,-233 165,-232 170,0 6,123 2,219 -1,342 -10,185 -168,185 -170,0 -6,-123 -7,-219 1,-342z"/>
   <path class="fil1" d="M10157 3139c1193,99 965,-961 254,-962 -650,19 -979,295 -999,816 -20,569 281,805 804,811 683,-3 839,-280 700,-637 -353,319 -722,262 -759,-28z"/>
   <path class="fil3" d="M10117 3103c1148,99 977,-871 282,-877 -611,18 -920,277 -939,767 -19,535 264,757 755,762 564,-9 778,-182 672,-504 -332,300 -831,183 -770,-148z"/>
   <path class="fil1" d="M3977 1486c472,-166 959,-138 1028,279 98,433 198,699 290,1118 175,-422 202,-587 313,-974 33,-182 29,-349 -20,-478 413,-75 670,-5 618,269 -82,402 -567,1300 -745,2022 -557,104 -738,110 -877,-493 -145,-618 -315,-1219 -607,-1743z"/>
   <path class="fil2" d="M4115 3744l0 -196 87 0c18,0 31,1 40,5 9,4 16,10 22,19 5,9 8,18 8,29 0,14 -5,26 -14,35 -9,10 -23,16 -41,19 7,3 12,6 15,9 8,7 15,16 22,27l34 53 -33 0 -26 -41c-7,-12 -13,-21 -18,-27 -5,-6 -10,-11 -14,-13 -3,-3 -7,-4 -11,-5 -3,-1 -8,-1 -15,-1l-30 0 0 87 -26 0zm26 -110l56 0c12,0 21,-1 28,-3 6,-3 11,-7 15,-12 3,-6 5,-11 5,-18 0,-9 -3,-17 -10,-23 -7,-6 -17,-9 -32,-9l-62 0 0 65z"/>
   <path class="fil3" d="M4055 1520c453,-158 847,-118 913,283 103,411 241,831 311,1238 177,-333 263,-718 368,-1100 32,-174 60,-342 0,-468 397,-72 599,12 499,284 -106,447 -551,1231 -722,1924 -535,100 -663,96 -796,-483 -139,-593 -293,-1174 -573,-1678z"/>
   <path class="fil1" d="M10163 2892c-9,-119 -21,-231 60,-333 136,-160 341,-28 277,166 -63,132 -174,181 -337,167z"/>
   <path class="fil2" d="M10210 2836c-7,-86 -7,-171 52,-245 93,-118 250,-20 190,114 -46,96 -123,141 -242,131z"/>
   <path class="fil1" d="M10260 2773c6,-51 21,-99 55,-142 53,-74 107,-19 79,49 -27,56 -71,88 -134,93z"/>
  </g>
 </g>
</svg>
