<?xml version="1.0" encoding="UTF-8"?>
<!DOCTYPE svg PUBLIC "-//W3C//DTD SVG 1.1//EN" "http://www.w3.org/Graphics/SVG/1.1/DTD/svg11.dtd">
<!-- Creator: CorelDRAW X8 -->
<svg xmlns="http://www.w3.org/2000/svg" xml:space="preserve" width="150mm" height="60mm" version="1.1" style="shape-rendering:geometricPrecision; text-rendering:geometricPrecision; image-rendering:optimizeQuality; fill-rule:evenodd; clip-rule:evenodd"
viewBox="0 0 15000 6000"
 xmlns:xlink="http://www.w3.org/1999/xlink">
 <defs>
  <style type="text/css">
   <![CDATA[
    .str0 {stroke:#302C5F;stroke-width:33.82;stroke-linecap:round;stroke-linejoin:round}
    .fil0 {fill:none}
    .fil2 {fill:#302C5F}
    .fil3 {fill:#E54201}
    .fil1 {fill:#302C5F;fill-rule:nonzero}
   ]]>
  </style>
 </defs>
 <g id="Capa_x0020_1">
  <metadata id="CorelCorpID_0Corel-Layer"/>
  <g id="_671545184">
   <g>
    <path class="fil0 str0" d="M14664 2408c-156,0 -282,-127 -282,-283 0,-156 126,-282 282,-282 156,0 282,126 282,282 0,156 -126,283 -282,283z"/>
   </g>
   <path class="fil1" d="M3555 5746l0 -842 172 0 0 698 426 0 0 144 -598 0zm1125 0l0 -92c-22,33 -52,59 -88,78 -37,20 -75,29 -116,29 -41,0 -78,-9 -111,-27 -33,-18 -57,-44 -72,-77 -14,-33 -22,-78 -22,-136l0 -390 163 0 0 283c0,87 3,140 9,159 6,20 17,35 33,47 15,11 36,17 60,17 28,0 53,-8 75,-23 22,-15 37,-34 45,-57 8,-23 13,-78 13,-166l0 -260 162 0 0 615 -151 0zm311 0l0 -849 162 0 0 306c50,-57 110,-85 179,-85 74,0 136,27 185,81 49,54 74,132 74,234 0,105 -25,186 -75,243 -50,57 -111,85 -182,85 -35,0 -70,-9 -104,-27 -34,-18 -64,-44 -89,-78l0 90 -150 0zm161 -320c0,64 10,112 30,142 28,44 66,65 112,65 36,0 67,-15 92,-46 25,-31 38,-79 38,-146 0,-70 -13,-121 -39,-152 -25,-31 -57,-47 -97,-47 -39,0 -71,15 -97,46 -26,30 -39,76 -39,138zm726 320l-163 0 0 -615 151 0 0 87c26,-41 49,-68 70,-81 20,-13 44,-19 70,-19 37,0 73,10 107,30l-50 143c-27,-19 -53,-28 -76,-28 -23,0 -43,7 -58,19 -16,13 -29,35 -38,68 -9,33 -13,102 -13,206l0 190zm306 -698l0 -151 162 0 0 151 -162 0zm0 698l0 -615 162 0 0 615 -162 0zm615 -275l167 -17c10,56 30,97 61,123 30,27 72,40 124,40 54,0 96,-12 124,-35 28,-24 42,-51 42,-82 0,-20 -6,-37 -18,-51 -11,-14 -32,-27 -61,-37 -20,-7 -66,-19 -137,-37 -91,-23 -156,-51 -193,-85 -51,-46 -77,-104 -77,-171 0,-43 12,-84 36,-122 25,-37 60,-66 106,-86 46,-20 101,-29 166,-29 107,0 187,23 240,70 54,48 82,110 85,189l-172 6c-7,-44 -23,-75 -47,-94 -24,-19 -60,-29 -108,-29 -49,0 -88,10 -116,31 -18,13 -27,31 -27,53 0,20 9,37 26,51 21,19 74,38 157,57 83,20 144,40 184,61 40,22 71,50 94,87 22,36 34,81 34,135 0,49 -14,94 -41,137 -27,42 -65,74 -114,94 -50,21 -112,31 -185,31 -108,0 -190,-24 -247,-74 -58,-49 -92,-121 -103,-216zm1370 -158l-160 29c-5,-32 -17,-56 -37,-72 -19,-16 -43,-24 -74,-24 -40,0 -73,14 -97,42 -24,28 -36,75 -36,140 0,73 12,125 37,155 24,31 57,46 98,46 31,0 56,-9 76,-27 20,-18 33,-48 41,-91l161 27c-17,74 -49,129 -96,167 -47,38 -110,56 -189,56 -90,0 -162,-28 -215,-85 -54,-57 -80,-135 -80,-236 0,-102 27,-181 80,-237 54,-57 126,-85 218,-85 74,0 134,16 178,48 44,32 76,81 95,147zm124 -265l0 -151 162 0 0 151 -162 0zm0 698l0 -615 162 0 0 615 -162 0zm685 -195l162 28c-20,59 -53,104 -98,136 -45,31 -102,46 -169,46 -107,0 -186,-35 -237,-105 -41,-56 -61,-126 -61,-212 0,-102 26,-182 80,-240 53,-58 120,-86 202,-86 91,0 163,30 216,90 53,61 78,153 76,278l-407 0c1,48 14,86 39,113 25,27 56,40 94,40 25,0 46,-7 64,-21 17,-13 30,-36 39,-67zm9 -164c-1,-48 -13,-84 -36,-108 -23,-25 -51,-37 -84,-37 -36,0 -65,13 -88,39 -23,26 -34,61 -34,106l242 0zm854 359l-162 0 0 -314c0,-66 -4,-109 -11,-128 -7,-20 -18,-35 -34,-46 -16,-11 -35,-16 -57,-16 -28,0 -54,8 -76,23 -23,16 -38,36 -47,61 -8,26 -12,73 -12,142l0 278 -163 0 0 -615 151 0 0 90c54,-69 122,-103 204,-103 36,0 69,6 98,19 30,13 53,29 68,49 16,20 26,43 32,69 6,25 9,62 9,109l0 382zm701 -433l-160 29c-6,-32 -18,-56 -37,-72 -19,-16 -44,-24 -74,-24 -41,0 -73,14 -97,42 -24,28 -37,75 -37,140 0,73 13,125 37,155 25,31 58,46 99,46 30,0 56,-9 75,-27 20,-18 34,-48 42,-91l160 27c-16,74 -48,129 -95,167 -47,38 -110,56 -190,56 -89,0 -161,-28 -214,-85 -54,-57 -81,-135 -81,-236 0,-102 27,-181 81,-237 53,-57 126,-85 217,-85 75,0 134,16 179,48 44,32 75,81 95,147zm479 238l162 28c-20,59 -53,104 -98,136 -45,31 -102,46 -169,46 -107,0 -186,-35 -237,-105 -41,-56 -61,-126 -61,-212 0,-102 27,-182 80,-240 53,-58 120,-86 202,-86 91,0 163,30 216,90 53,61 78,153 76,278l-407 0c1,48 14,86 39,113 25,27 57,40 94,40 25,0 47,-7 64,-21 17,-13 30,-36 39,-67zm10 -164c-2,-48 -14,-84 -37,-108 -23,-25 -51,-37 -84,-37 -36,0 -65,13 -88,39 -23,26 -34,61 -34,106l243 0z"/>
   <path class="fil1" d="M14528 2280l0 -309 137 0c28,0 49,2 63,8 14,6 26,15 34,29 9,14 13,30 13,47 0,22 -7,41 -21,56 -14,15 -36,24 -66,28 11,6 19,11 25,16 12,11 23,24 34,41l54 84 -52 0 -41 -64c-12,-19 -22,-33 -30,-43 -7,-10 -14,-17 -20,-21 -6,-4 -13,-6 -19,-8 -5,-1 -12,-1 -23,-1l-47 0 0 137 -41 0zm41 -173l88 0c18,0 33,-2 44,-6 10,-3 18,-10 24,-18 5,-9 8,-18 8,-28 0,-15 -5,-27 -16,-36 -11,-9 -27,-14 -50,-14l-98 0 0 102z"/>
   <polygon class="fil2" points="54,1848 1003,1848 1148,3366 1631,1848 2182,1848 2606,3412 2779,1848 3708,1848 3254,4553 2287,4553 1881,3059 1486,4553 494,4553 "/>
   <polygon class="fil2" points="14666,4553 13716,4553 13571,3035 13089,4553 12538,4553 12113,2989 11940,4553 11012,4553 11466,1848 12432,1848 12839,3342 13233,1848 14225,1848 "/>
   <polygon class="fil2" points="3953,1849 4939,1849 4939,4562 3953,4562 "/>
   <path class="fil2" d="M5393 4562l0 -2719 1288 0c182,0 333,49 471,92 638,197 710,1239 244,1456 -74,34 -144,82 -233,104 191,72 521,711 782,1067l-1127 0 -462 -931 -8 931 -955 0zm971 -1507l147 0c281,0 373,-495 -2,-495l-161 0 16 495z"/>
   <path class="fil2" d="M9491 1639c812,0 1470,658 1470,1470 0,812 -658,1470 -1470,1470 -812,0 -1470,-658 -1470,-1470 0,-812 658,-1470 1470,-1470zm0 934c297,0 537,240 537,536 0,297 -240,537 -537,537 -296,0 -536,-240 -536,-537 0,-296 240,-536 536,-536z"/>
   <path class="fil3" d="M8320 4025c-331,-579 -218,-1291 439,-1686 271,-163 634,-210 1097,-294 955,-132 1714,-651 2268,-1806 -714,749 -2580,850 -3455,1239 -937,467 -1110,1791 -349,2547z"/>
  </g>
 </g>
</svg>
