<?xml version="1.0" encoding="UTF-8"?>
<!DOCTYPE svg PUBLIC "-//W3C//DTD SVG 1.1//EN" "http://www.w3.org/Graphics/SVG/1.1/DTD/svg11.dtd">
<!-- Creator: CorelDRAW 2019 (64-Bit) -->
<svg xmlns="http://www.w3.org/2000/svg" xml:space="preserve" width="209.835mm" height="42.286mm" version="1.1" style="shape-rendering:geometricPrecision; text-rendering:geometricPrecision; image-rendering:optimizeQuality; fill-rule:evenodd; clip-rule:evenodd"
viewBox="0 0 20983.5 4228.6"
 xmlns:xlink="http://www.w3.org/1999/xlink"
 xmlns:xodm="http://www.corel.com/coreldraw/odm/2003">
 <defs>
  <style type="text/css">
   <![CDATA[
    .fil0 {fill:#2957A4}
    .fil2 {fill:#999999}
    .fil1 {fill:red}
    .fil4 {fill:black;fill-rule:nonzero}
    .fil3 {fill:white;fill-rule:nonzero}
   ]]>
  </style>
 </defs>
 <g id="Capa_x0020_1">
  <metadata id="CorelCorpID_0Corel-Layer"/>
  <path class="fil0" d="M3354.57 -0.03l2010.95 0c100.92,0 168.6,82.46 150.14,183.37l-723.64 3861.91c-18.46,100.92 -116.91,183.37 -217.83,183.37l-2010.95 0c-100.92,0 -168.6,-82.45 -148.91,-183.37l722.41 -3861.91c18.46,-100.91 116.91,-183.37 217.83,-183.37z"/>
  <path class="fil1" d="M5731.04 -0.03l2010.96 0c100.91,0 167.37,82.46 148.91,183.37l-722.42 3861.91c-18.46,100.92 -116.91,183.37 -217.82,183.37l-2010.96 0c-102.14,0 -168.6,-82.45 -150.14,-183.37l722.41 -3861.91c19.69,-100.91 116.92,-183.37 219.06,-183.37z"/>
  <path class="fil2" d="M954.72 -0.03l2033.11 0c102.15,0 169.83,83.69 151.37,185.83l-729.79 3856.99c-19.69,102.14 -119.38,185.83 -221.52,185.83l-2034.34 0c-102.15,0 -169.83,-83.69 -150.14,-185.83l729.79 -3856.99c19.7,-102.14 118.15,-185.83 221.52,-185.83z"/>
  <path class="fil3" d="M1058.1 3528.36l110.76 0c75.07,0 132.91,-6.15 172.29,-17.23 39.38,-11.08 75.07,-30.77 107.07,-59.07 38.15,-33.23 72.61,-84.92 100.92,-153.83 28.3,-70.15 45.53,-143.99 51.68,-221.52 8.62,-113.22 -7.38,-193.22 -46.76,-238.75 -40.61,-46.77 -113.22,-68.92 -219.06,-68.92l-108.3 0 -168.6 759.33 0 -0.01zm-556.27 370.44l337.21 -1494.06 594.42 0c150.15,0 265.83,16 345.83,50.46 80,33.22 146.45,91.07 203.06,172.29 36.92,54.15 62.77,119.37 80,195.67 16,77.54 20.92,161.22 13.53,251.06 -19.69,267.05 -105.83,471.36 -257.2,612.88 -152.61,141.53 -360.6,211.68 -626.43,211.68l-690.41 0 -0.01 0.02z"/>
  <polygon class="fil3" points="3439.5,3880.34 3678.25,2749.34 3247.5,2749.34 3336.11,2362.9 4661.57,2362.9 4570.5,2749.34 4159.45,2749.34 3921.92,3880.34 "/>
  <path class="fil3" d="M5176 3859.42l838.09 -1491.6 477.51 0 190.76 1491.6 -450.44 0 -9.84 -178.45 -475.05 0 -87.38 178.45 -483.66 0 0.01 0zm711.34 -479.97l307.67 0 -39.38 -551.35 -268.28 551.35 -0.01 0z"/>
  <path class="fil4" d="M8901.84 369.16l64.87 0c181.61,0 242.14,60.62 204.66,287.91 -34.59,206.08 -135.48,293.97 -294.03,293.97l-72.07 0 96.57 -581.88zm-33.14 836.45c332.94,0 576.53,-157.59 645.71,-568.24 60.53,-359.12 -119.63,-522.78 -454.02,-522.78l-455.46 0 -183.06 1091.02 446.83 0zm1556.63 0l43.24 -254.57 -526.09 0 28.83 -171.23 428.07 0 41.81 -254.57 -428.08 0 25.95 -156.08 505.9 0 43.24 -254.57 -846.06 0 -183.05 1091.02 866.24 0zm1158.83 -774.32c7.21,-190.93 -98.01,-345.49 -386.27,-345.49 -259.44,0 -468.43,116.68 -507.35,348.52 -70.62,416.71 544.82,303.06 517.44,468.23 -8.65,51.52 -69.18,80.31 -154.23,80.31 -33.15,0 -67.74,-9.09 -92.24,-27.27 -25.94,-18.19 -40.36,-46.98 -41.8,-86.38l-325.74 0c-25.94,196.99 125.39,365.19 399.25,365.19 285.38,0 505.91,-122.74 547.7,-375.79 67.75,-397.01 -546.25,-295.49 -518.87,-459.14 5.76,-39.4 43.23,-62.13 118.19,-62.13 33.14,0 61.97,6.06 85.03,19.7 21.62,13.64 37.48,36.37 36.04,74.25l322.85 0zm675.99 403.07l-214.75 0 171.51 -390.95 43.24 390.95zm-380.51 371.25l63.43 -143.95 338.7 0 15.86 143.95 338.72 0 -188.82 -1091.02 -345.92 0 -554.91 1091.02 332.94 0zm1340.44 -836.45l158.55 0c79.27,0 131.16,36.37 118.19,113.65 -12.97,75.77 -73.51,103.04 -178.73,103.04l-134.04 0 36.03 -216.69zm27.39 456.11c158.54,0 174.4,46.97 149.9,189.41 -15.86,96.98 -18.74,166.69 -14.42,190.93l344.48 0 5.77 -33.34c-40.36,0 -27.39,-48.49 -4.33,-190.92 37.48,-219.72 -24.5,-247 -126.84,-289.43 126.84,-34.85 197.47,-140.92 219.09,-266.69 34.59,-212.14 -61.98,-310.64 -407.9,-310.64l-490.05 0 -183.06 1091.02 340.16 0 63.42 -380.34 103.78 0zm1093.97 -456.11l158.54 0c79.27,0 131.16,36.37 118.2,113.65 -12.98,75.77 -73.51,103.04 -178.73,103.04l-134.04 0 36.03 -216.69zm27.38 456.11c158.55,0 174.4,46.97 149.9,189.41 -15.86,96.98 -18.74,166.69 -14.41,190.93l344.47 0 5.78 -33.34c-40.36,0 -27.4,-48.49 -4.33,-190.92 37.48,-219.72 -24.5,-247 -126.84,-289.43 126.84,-34.85 197.46,-140.92 219.08,-266.69 34.6,-212.14 -61.97,-310.64 -407.89,-310.64l-490.06 0 -183.05 1091.02 340.15 0 63.43 -380.34 103.77 0zm1265.49 -472.77c151.34,-4.55 181.61,153.04 157.11,301.54 -30.27,180.32 -109.55,313.67 -256.57,313.67 -162.87,0 -174.4,-174.26 -151.33,-313.67 23.06,-137.89 96.57,-301.54 250.79,-301.54zm47.56 -266.7c-322.85,0 -580.85,222.75 -637.07,565.21 -63.41,371.25 119.63,583.39 445.38,583.39 307,0 579.41,-209.11 641.39,-580.36 49.01,-287.91 -79.27,-568.24 -449.7,-568.24zm1330.35 1119.81l43.24 -254.57 -466.99 0 139.81 -836.45 -340.15 0 -183.06 1091.02 807.15 0zm961.38 0l43.24 -254.57 -467 0 139.82 -836.45 -340.16 0 -183.05 1091.02 807.15 0zm784.09 -853.11c151.34,-4.55 181.61,153.04 157.11,301.54 -30.27,180.32 -109.55,313.67 -256.57,313.67 -162.87,0 -174.4,-174.26 -151.33,-313.67 23.05,-137.89 96.56,-301.54 250.79,-301.54zm47.56 -266.7c-322.86,0 -580.86,222.75 -637.07,565.21 -63.42,371.25 119.63,583.39 445.37,583.39 307.01,0 579.42,-209.11 641.4,-580.36 49,-287.91 -79.27,-568.24 -449.7,-568.24zm1507.63 345.49c7.21,-190.93 -98.01,-345.49 -386.28,-345.49 -259.43,0 -468.43,116.68 -507.34,348.52 -70.63,416.71 544.82,303.06 517.43,468.23 -8.64,51.52 -69.18,80.31 -154.22,80.31 -33.15,0 -67.75,-9.09 -92.25,-27.27 -25.94,-18.19 -40.36,-46.98 -41.79,-86.38l-325.75 0c-25.94,196.99 125.4,365.19 399.25,365.19 285.39,0 505.91,-122.74 547.71,-375.79 67.74,-397.01 -546.26,-295.49 -518.87,-459.14 5.76,-39.4 43.23,-62.13 118.18,-62.13 33.15,0 61.98,6.06 85.04,19.7 21.62,13.64 37.47,36.37 36.04,74.25l322.85 0z"/>
  <path class="fil4" d="M8215.87 1858l305.66 0 -135.53 804.63 340.27 0 135.53 -804.63 305.67 0 47.57 -286.4 -951.59 0 -47.58 286.4zm1836.87 804.63l43.25 -254.57 -526.26 0 28.84 -171.23 428.22 0 41.81 -254.58 -428.22 0 25.96 -156.08 506.07 0 43.25 -254.57 -846.34 0 -183.12 1091.03 866.54 0zm1248.62 -674.32c20.18,-280.33 -129.77,-445.5 -446.97,-445.5 -289.8,0 -553.65,219.72 -612.77,572.79 -60.56,354.58 111.02,575.82 454.17,575.82 273.94,0 493.1,-169.71 570.96,-451.56l-327.29 0c-30.28,104.55 -95.16,184.86 -204.74,184.86 -173.02,0 -181.67,-143.95 -155.72,-297 36.05,-210.63 125.45,-318.22 245.12,-318.22 106.69,0 164.36,65.16 154.27,178.81l322.97 0zm539.24 -416.71l-318.65 0 -183.11 1091.03 325.85 0 57.67 -345.49 28.84 -248.52 271.06 594.01 318.64 0 183.12 -1091.03 -325.85 0 -57.67 347.01 -28.84 248.51 -271.06 -595.52zm1339.44 237.9c151.39,-4.54 181.67,153.05 157.16,301.55 -30.28,180.33 -109.58,313.67 -256.65,313.67 -162.92,0 -174.45,-174.26 -151.39,-313.67 23.08,-137.89 96.61,-301.55 250.88,-301.55zm47.58 -266.69c-322.97,0 -581.05,222.75 -637.28,565.21 -63.44,371.26 119.66,583.4 445.52,583.4 307.11,0 579.61,-209.11 641.6,-580.37 49.04,-287.91 -79.29,-568.24 -449.84,-568.24zm1330.79 1119.82l43.26 -254.57 -467.15 0 139.86 -836.46 -340.27 0 -183.11 1091.03 807.41 0zm784.36 -853.13c151.39,-4.54 181.67,153.05 157.16,301.55 -30.28,180.33 -109.59,313.67 -256.65,313.67 -162.92,0 -174.46,-174.26 -151.39,-313.67 23.07,-137.89 96.6,-301.55 250.88,-301.55zm47.57 -266.69c-322.96,0 -581.04,222.75 -637.28,565.21 -63.43,371.26 119.67,583.4 445.53,583.4 307.1,0 579.61,-209.11 641.6,-580.37 49.03,-287.91 -79.3,-568.24 -449.85,-568.24zm1619.17 519.75l-465.71 0 -40.37 236.39 149.95 0c-28.83,75.77 -125.44,125.77 -194.64,125.77 -171.58,0 -194.65,-140.92 -168.7,-295.48 31.72,-192.45 116.79,-319.74 250.88,-319.74 87.95,0 142.74,48.5 151.39,137.9l322.97 0c2.88,-268.21 -174.46,-404.59 -423.9,-404.59 -335.94,0 -583.94,239.42 -641.61,587.94 -63.44,380.35 144.18,560.67 409.48,560.67 162.92,0 266.73,-63.64 334.5,-133.35l-4.32 107.59 219.16 0 100.92 -603.1zm445.52 600.07l183.11 -1091.03 -340.27 0 -183.11 1091.03 340.27 0zm1294.75 -674.32c20.18,-280.33 -129.76,-445.5 -446.96,-445.5 -289.81,0 -553.66,219.72 -612.77,572.79 -60.56,354.58 111.02,575.82 454.16,575.82 273.95,0 493.11,-169.71 570.97,-451.56l-327.3 0c-30.27,104.55 -95.16,184.86 -204.73,184.86 -173.02,0 -181.67,-143.95 -155.72,-297 36.05,-210.63 125.44,-318.22 245.11,-318.22 106.69,0 164.36,65.16 154.28,178.81l322.96 0zm677.66 -178.81c151.39,-4.54 181.67,153.05 157.16,301.55 -30.28,180.33 -109.59,313.67 -256.65,313.67 -162.92,0 -174.46,-174.26 -151.39,-313.67 23.07,-137.89 96.6,-301.55 250.88,-301.55zm47.57 -266.69c-322.96,0 -581.05,222.75 -637.28,565.21 -63.44,371.26 119.67,583.4 445.53,583.4 307.1,0 579.61,-209.11 641.6,-580.37 49.03,-287.91 -79.3,-568.24 -449.85,-568.24zm1508.15 345.49c7.2,-190.93 -98.04,-345.49 -386.41,-345.49 -259.53,0 -468.59,116.68 -507.52,348.52 -70.65,416.72 545.01,303.07 517.61,468.24 -8.65,51.52 -69.21,80.31 -154.27,80.31 -33.16,0 -67.77,-9.09 -92.28,-27.28 -25.95,-18.18 -40.37,-46.97 -41.81,-86.37l-325.85 0c-25.95,196.99 125.44,365.19 399.38,365.19 285.48,0 506.08,-122.74 547.89,-375.8 67.77,-397.01 -546.45,-295.49 -519.06,-459.14 5.77,-39.4 43.26,-62.13 118.24,-62.13 33.16,0 62,6.06 85.06,19.7 21.63,13.64 37.49,36.37 36.05,74.25l322.97 0z"/>
  <path class="fil4" d="M8499.4 3738.88l-213.17 0 170.25 -390.96 42.92 390.96zm-377.7 371.25l62.94 -143.96 336.22 0 15.74 143.96 336.23 0 -187.43 -1091.03 -343.37 0 -550.83 1091.03 330.5 0zm1044.43 0l339.09 0 539.37 -1091.03 -340.5 0 -309.04 725.84 -58.66 -725.84 -340.52 0 170.26 1091.03zm1347.75 -371.25l-213.18 0 170.26 -390.96 42.92 390.96zm-377.71 371.25l62.95 -143.96 336.22 0 15.74 143.96 336.22 0 -187.43 -1091.03 -343.37 0 -550.83 1091.03 330.5 0zm1363.49 -1091.03l-316.2 0 -181.7 1091.03 323.35 0 57.22 -345.49 28.62 -248.52 268.98 594.01 316.18 0 181.71 -1091.03 -323.34 0 -57.23 347.01 -28.62 248.51 -268.97 -595.52zm1575.22 1091.03l42.92 -254.57 -520.78 0 598.04 -583.4 41.5 -253.06 -888.49 0 -42.92 254.57 473.57 0 -589.46 577.34 -42.92 259.12 928.54 0zm776.89 -371.25l-213.18 0 170.26 -390.96 42.92 390.96zm-377.71 371.25l62.95 -143.96 336.22 0 15.74 143.96 336.22 0 -187.43 -1091.03 -343.37 0 -550.83 1091.03 330.5 0zm1336.3 -836.46l64.38 0c180.28,0 240.36,60.62 203.16,287.91 -34.34,206.09 -134.49,293.98 -291.86,293.98l-71.54 0 95.86 -581.89zm-32.9 836.46c330.49,0 572.28,-157.59 640.96,-568.25 60.09,-359.13 -118.75,-522.78 -450.68,-522.78l-452.11 0 -181.7 1091.03 443.53 0zm1310.54 -853.13c150.23,-4.54 180.27,153.05 155.95,301.55 -30.04,180.33 -108.74,313.67 -254.67,313.67 -161.67,0 -173.12,-174.26 -150.23,-313.67 22.9,-137.89 95.86,-301.55 248.95,-301.55zm47.21 -266.69c-320.48,0 -576.58,222.75 -632.38,565.21 -62.95,371.26 118.75,583.4 442.1,583.4 304.74,0 575.15,-209.11 636.67,-580.37 48.65,-287.91 -78.69,-568.24 -446.39,-568.24zm1496.55 345.49c7.14,-190.93 -97.29,-345.49 -383.44,-345.49 -257.54,0 -464.99,116.68 -503.62,348.52 -70.1,416.72 540.82,303.07 513.64,468.24 -8.59,51.52 -68.68,80.31 -153.09,80.31 -32.91,0 -67.25,-9.09 -91.57,-27.28 -25.76,-18.18 -40.06,-46.97 -41.49,-86.37l-323.35 0c-25.75,196.99 124.48,365.19 396.32,365.19 283.28,0 502.18,-122.74 543.67,-375.8 67.25,-397.01 -542.25,-295.49 -515.06,-459.14 5.72,-39.4 42.92,-62.13 117.32,-62.13 32.91,0 61.52,6.06 84.41,19.7 21.46,13.64 37.2,36.37 35.78,74.25l320.48 0z"/>
 </g>
</svg>
